<?xml version="1.0" encoding="utf-8"?>
<!-- Generator: Adobe Illustrator 27.5.0, SVG Export Plug-In . SVG Version: 6.00 Build 0)  -->
<svg version="1.1" xmlns="http://www.w3.org/2000/svg" xmlns:xlink="http://www.w3.org/1999/xlink" x="0px" y="0px"
	 viewBox="0 0 500 500" style="enable-background:new 0 0 500 500;" xml:space="preserve">
<g id="Background_2">
	<g>
		<g>
			<g>
				<g>
					<rect y="382.398" style="fill:#D1E3FF;" width="500" height="0.25"/>
					<rect x="51.646" y="395" style="fill:#D1E3FF;" width="95.783" height="0.25"/>
					<rect x="82.932" y="390" style="fill:#D1E3FF;" width="22.902" height="0.25"/>
					<rect x="228.508" y="390.736" style="fill:#D1E3FF;" width="45.381" height="0.25"/>
					<rect x="381.676" y="392.444" style="fill:#D1E3FF;" width="48.657" height="0.25"/>
					<rect x="157.111" y="395" style="fill:#D1E3FF;" width="17.417" height="0.25"/>
					<rect x="438.5" y="392.444" style="fill:#D1E3FF;" width="7.086" height="0.25"/>
					<path style="fill:#D1E3FF;" d="M237.014,337.8H43.915c-3.147,0-5.708-2.561-5.708-5.708V60.66c0-3.147,2.561-5.708,5.708-5.708
						h193.099c3.146,0,5.707,2.561,5.707,5.708v271.432C242.721,335.239,240.16,337.8,237.014,337.8z M43.915,55.203
						c-3.01,0-5.458,2.448-5.458,5.458v271.432c0,3.01,2.448,5.458,5.458,5.458h193.099c3.009,0,5.457-2.448,5.457-5.458V60.66
						c0-3.009-2.448-5.458-5.457-5.458H43.915z"/>
					<path style="fill:#D1E3FF;" d="M453.31,337.8H260.212c-3.146,0-5.707-2.561-5.707-5.708V60.66c0-3.147,2.561-5.708,5.707-5.708
						H453.31c3.148,0,5.708,2.561,5.708,5.708v271.432C459.019,335.239,456.458,337.8,453.31,337.8z M260.212,55.203
						c-3.009,0-5.457,2.448-5.457,5.458v271.432c0,3.01,2.448,5.458,5.457,5.458H453.31c3.01,0,5.458-2.448,5.458-5.458V60.66
						c0-3.009-2.448-5.458-5.458-5.458H260.212z"/>
				</g>
			</g>
		</g>
		<g>
			<g>
				<g>
					<rect x="286.75" y="73.631" style="fill:#D1E3FF;" width="136.28" height="158.796"/>
					<rect x="288.481" y="73.631" style="fill:#F3F8FF;" width="138.253" height="158.796"/>
					<rect x="286.75" y="232.427" style="fill:#D1E3FF;" width="136.28" height="8.897"/>
					<rect x="313.519" y="232.427" style="fill:#F3F8FF;" width="130.148" height="8.897"/>
					
						<rect x="284.945" y="89.088" transform="matrix(-1.836970e-16 1 -1 -1.836970e-16 510.6367 -204.5781)" style="fill:#F5FCFF;" width="145.326" height="127.882"/>
					<polygon style="fill:#FFFFFF;" points="312.065,225.692 342.501,80.367 382.397,80.367 351.962,225.692 					"/>
					<polygon style="fill:#FFFFFF;" points="358.419,225.692 388.854,80.367 406.872,80.367 376.437,225.692 					"/>
					
						<rect x="355.705" y="144.641" transform="matrix(-1.836970e-16 1 -1 -1.836970e-16 566.1899 -276.2487)" style="fill:#D1E3FF;" width="131.029" height="0.658"/>
				</g>
				<g>
					<path style="fill:#D1E3FF;" d="M282.858,73.402v56.537h14.959c0,0,26.877-17.531,32.984-53.595
						c0.62-3.662-2.184-7.013-5.898-7.013h-37.975C284.681,69.332,282.858,71.154,282.858,73.402z"/>
					<path style="fill:#D1E3FF;" d="M282.858,220.572v-86.069h14.959c0,0,8.6,17.373,17.176,37.357
						C324.887,194.914,307.946,220.572,282.858,220.572L282.858,220.572z"/>
					<path style="fill:#F3F8FF;" d="M297.377,134.504h-13.969c-0.828,0-1.499-0.671-1.499-1.499v-1.567
						c0-0.828,0.671-1.499,1.499-1.499h13.969c0.828,0,1.499,0.671,1.499,1.499v1.567
						C298.876,133.833,298.205,134.504,297.377,134.504z"/>
				</g>
				<g>
					<path style="fill:#D1E3FF;" d="M430.97,73.402v56.537h-14.959c0,0-26.877-17.531-32.984-53.595
						c-0.62-3.662,2.184-7.013,5.898-7.013h37.974C429.147,69.332,430.97,71.154,430.97,73.402z"/>
					<path style="fill:#D1E3FF;" d="M430.97,220.572v-86.069h-14.959c0,0-8.6,17.373-17.176,37.357
						C388.94,194.914,405.882,220.572,430.97,220.572L430.97,220.572z"/>
					<path style="fill:#F3F8FF;" d="M416.451,134.504h13.969c0.828,0,1.499-0.671,1.499-1.499v-1.567
						c0-0.828-0.671-1.499-1.499-1.499h-13.969c-0.828,0-1.499,0.671-1.499,1.499v1.567
						C414.952,133.833,415.623,134.504,416.451,134.504z"/>
				</g>
			</g>
			<g>
				<path style="fill:#D1E3FF;" d="M99.722,162.773c-18.134,0-32.834-14.7-32.834-32.834s14.7-32.834,32.834-32.834h2.02v65.669
					H99.722z"/>
				
					<ellipse transform="matrix(0.7071 -0.7071 0.7071 0.7071 -62.0813 110.0002)" style="fill:#F3F8FF;" cx="101.741" cy="129.939" rx="32.834" ry="32.834"/>
				<circle style="fill:#FFFFFF;" cx="101.741" cy="129.939" r="24.756"/>
				<polygon style="fill:#D1E3FF;" points="111.982,139.14 99.866,130.687 103.708,111.977 107.012,112.656 103.617,129.191 
					113.912,136.373 				"/>
			</g>
			<g>
				<g>
					<rect x="217.307" y="243.299" style="fill:#D1E3FF;" width="42.91" height="139.1"/>
					<polygon style="fill:#F3F8FF;" points="248.759,382.398 260.217,382.398 260.217,363.196 236.745,363.196 					"/>
					<rect x="52.177" y="243.299" style="fill:#D1E3FF;" width="42.91" height="139.1"/>
					<rect x="85.087" y="243.299" style="fill:#F3F8FF;" width="175.13" height="132.49"/>
					<polygon style="fill:#F3F8FF;" points="96.545,382.398 85.087,382.398 85.087,363.196 108.559,363.196 					"/>
					<rect x="93.975" y="292.669" style="fill:#E3EEFF;" width="157.353" height="33.156"/>
					<rect x="93.975" y="332.912" style="fill:#E3EEFF;" width="157.353" height="33.156"/>
					<path style="fill:#F3F8FF;" d="M227.75,296.214H117.553c-3.544,0-6.416-2.873-6.416-6.417l0,0h123.03l0,0
						C234.167,293.341,231.294,296.214,227.75,296.214z"/>
					<rect x="93.975" y="252.426" style="fill:#E3EEFF;" width="157.353" height="33.156"/>
					<path style="fill:#F3F8FF;" d="M227.75,255.971H117.553c-3.544,0-6.416-2.873-6.416-6.417l0,0h123.03l0,0
						C234.167,253.098,231.294,255.971,227.75,255.971z"/>
					<path style="fill:#F3F8FF;" d="M227.75,336.457H117.553c-3.544,0-6.416-2.873-6.416-6.417l0,0h123.03l0,0
						C234.167,333.584,231.294,336.457,227.75,336.457z"/>
				</g>
			</g>
			<g>
				<g>
					<polygon style="fill:#D1E3FF;" points="413.403,382.398 326.734,382.398 319.65,282.654 406.319,282.654 					"/>
					<polygon style="fill:#EEF9FF;" points="423.241,382.398 329.414,382.398 322.33,282.654 416.157,282.654 					"/>
					<polygon style="fill:#FFFFFF;" points="336.716,374.538 330.749,290.514 408.855,290.514 414.823,374.538 					"/>
				</g>
				
					<ellipse transform="matrix(0.6945 -0.7195 0.7195 0.6945 -125.3635 369.8106)" style="fill:#EEF9FF;" cx="372.786" cy="332.526" rx="23.518" ry="25.249"/>
			</g>
			<g>
				<path style="fill:#D1E3FF;" d="M168.288,151.124c4.384,3.578,10.434,10.13,15.978,19.348c3.692,6.139,5.918,12.571,6.895,21.069
					c-0.021-9.619-0.051-19.955-0.085-29.71c-1.114-2.51-3.657-8.296-5.481-12.866c-6.087-15.251-8.355-19.002-13.83-32.157
					c-7.302-17.546-14.785-38.366-12.643-36.702c4.366,3.39,21.098,34.721,22.906,39.206c6.221,15.426,7.953,26.67,9.03,37.522
					c-0.034-9.162-0.07-17.574-0.104-24.066c-0.112-21.172-0.472-28.005-0.648-30.112c-0.677-1.071-1.476-2.319-1.942-2.992
					c-3.93-5.683-5.446-10.524-9.149-19c-5.248-12.011-9.767-33.335-8.445-32.259c5.501,4.478,9.841,14.106,15.542,26.374
					c5.701,12.268,4.071,19.323,5.202,29.801c0.238,2.057,0.419,9.815,0.551,20.57c1.479-11.457,4.253-19.007,9.314-25.868
					c6.225-8.439,12.248-14.139,16.667-17.116c4.419-2.977-7.63,17.752-13.393,26.799c-5.132,8.057-9.858,15.167-12.524,22.169
					c0.141,14.574,0.206,33.031,0.207,50.21c1.322-7.819,3.48-16.237,6.36-22.756c3.46-7.833,8.784-19.846,13.02-23.922
					c1.018-0.979-4.43,22.387-7.927,28.6c-3.497,6.213-6.064,12.068-8.264,15.59c-0.513,0.822-2.216,3.99-3.189,5.813
					c-0.01,20.973-0.116,39.479-0.299,45.779h-0.906c0.062-1.625,0.072-12.294,0.052-26.414c-2.182-7.667-7.172-16.416-11.29-24.398
					C175.399,170.923,163.904,147.546,168.288,151.124z"/>
				<g>
					<polygon style="fill:#E3EEFF;" points="178.466,243.299 204.687,243.299 206.666,217.596 176.487,217.596 					"/>
					<polygon style="fill:#E3EEFF;" points="174.533,220.591 208.62,220.591 209.596,211.92 173.556,211.92 					"/>
				</g>
			</g>
		</g>
	</g>
</g>
<g id="Background_1" style="display:none;">
	<path style="display:inline;opacity:0.4;fill:#D4E8FF;" d="M73.906,271.889c51.163,83.171,162.711-14.845,228.889-17.077
		c48.454-1.634,96.951,9.209,115.646-52.138c14.327-47.012-11.297-84.211-56.675-90.613c-43.694-6.165-71.27,28.511-111.9,34.29
		c-47.454,6.751-70.633-27.961-113.207-35.995C38.519,91.837,36.954,211.82,73.906,271.889z"/>
</g>
<g id="Objects">
	<g>
		<ellipse style="fill:#F0F6FF;" cx="250" cy="416.238" rx="193.889" ry="11.323"/>
		<g>
			<g>
				<g>
					<polygon style="fill:#B55B52;" points="174.36,407.824 167.033,407.824 166.303,390.857 173.63,390.857 					"/>
					<polygon style="fill:#B55B52;" points="218.35,407.824 211.023,407.824 207.341,390.857 214.668,390.857 					"/>
					<path style="fill:#14365B;" d="M210.503,406.976l8.231,0c0.3,0,0.559,0.208,0.624,0.5l1.447,6.513
						c0.15,0.676-0.381,1.315-1.073,1.303c-2.874-0.049-4.27-0.218-7.89-0.218c-2.227,0-6.815,0.231-9.89,0.231
						c-3.008,0-3.477-3.041-2.218-3.316c5.645-1.235,7.772-2.938,9.579-4.563C209.639,407.133,210.065,406.976,210.503,406.976z"/>
					<path style="fill:#14365B;" d="M167.081,406.976l8.001,0c0.299,0,0.559,0.208,0.624,0.5l1.447,6.513
						c0.15,0.675-0.363,1.315-1.054,1.303c-2.886-0.049-7.057-0.218-10.685-0.218c-4.242,0-7.905,0.231-12.88,0.231
						c-3.008,0-3.843-3.041-2.584-3.316c5.732-1.254,10.412-1.388,15.365-4.442C165.854,407.215,166.449,406.976,167.081,406.976z"
						/>
					<path style="fill:#B55B52;" d="M161.686,168.413l-9.882-3.914c0,0-11.376,23.231-14.956,24.404
						c-4.871,1.596-14.878,6.032-20.931,6.864c-0.766,0.961-1.944,3.994-1.751,5.099c8.346,2.73,26.117-0.895,29.798-3.754
						C152.359,190.594,161.686,168.413,161.686,168.413z"/>
					<path style="fill:#9FC6FF;" d="M164.349,163.142c2.469,6.555-10.04,25.859-10.04,25.859l-14.653-7.958
						c0,0,3.416-9.628,8.467-17.152C153.309,156.165,161.639,155.948,164.349,163.142z"/>
					<path style="fill:#77B3FC;" d="M164.57,163.971c-2.874-1.361-6.094-0.222-9.329,5.192c-3.193,5.359-5.847,14.464-6.077,17.045
						l5.147,2.793C154.311,189.001,165.861,171.176,164.57,163.971z"/>
					<path style="fill:#B55B52;" d="M117.147,195.697l-8.261-3.392l-2.795,8.932c0,0,4.702,0.843,9.966,0L117.147,195.697z"/>
					<polygon style="fill:#B55B52;" points="102.881,192.085 103.017,198.028 106.09,201.236 108.886,192.305 					"/>
					<g>
						<polygon style="fill:#9E4541;" points="166.305,390.862 166.68,399.607 174.009,399.607 173.635,390.862 						"/>
						<polygon style="fill:#9E4541;" points="214.67,390.862 207.34,390.862 209.242,399.607 216.572,399.607 						"/>
					</g>
					<path style="fill:#9FC6FF;" d="M155.649,158.128c0,0-8.648,22.125-0.434,63.328c11.808,0,33.443,0,39.188,0
						c0.27-6.016-3.51-35.361,2.292-63.705c0,0-6.717-1.348-13.118-1.657c-5.007-0.241-12.257-0.401-16.659,0.001
						C161.115,156.624,155.649,158.128,155.649,158.128z"/>
					<path style="fill:#77B3FC;" d="M188.183,164.749c-0.652,4.664,0.819,15.826,5.261,28.722
						c0.014-9.926,0.611-21.434,2.707-32.901v-0.056C193.569,160.251,188.808,160.376,188.183,164.749z"/>
					<path style="fill:#FFFFFF;" d="M164.387,156.381c0.82-0.11,1.67-0.21,2.53-0.29c4.4-0.4,11.65-0.24,16.66,0
						c0.7,0.04,1.4,0.08,2.1,0.14l-0.24,0.6c-0.11,0.27-2.78,6.7-13.97,6.7c-1.47,0-5.92,0-7.32-3
						C163.447,159.031,163.857,157.491,164.387,156.381z"/>
					<path style="fill:#B55B52;" d="M181.4,140.514c-1.051,5.36-1.573,12.003,2.177,15.58c0,0-2.154,5.437-12.114,5.437
						c-9.101,0-4.545-5.437-4.545-5.437c5.977-1.427,5.665-8.819,4.624-12.984L181.4,140.514z"/>
					<path style="fill:#9E4541;" d="M180.698,145.494l-7.06-2.93l-0.91,0.24c0.13,0.93,0.54,2.26,1.11,3.58
						c1,2.26,4.64,5.39,7.49,5.99C180.649,150.294,180.528,147.895,180.698,145.494z"/>
					<path style="fill:#9E4541;" d="M191.405,141.586c-1.299,1.468-3.155,2.2-4.765,2.273c-2.421,0.109-3.087-2.188-1.959-4.188
						c1.016-1.8,3.5-4.026,5.711-3.188C192.571,137.309,192.891,139.907,191.405,141.586z"/>
					<path style="fill:#0F264C;" d="M190.224,124.716c3.292,2.118,3.498,12.414-1.443,13.916
						C183.841,140.133,183.989,120.704,190.224,124.716z"/>
					<path style="fill:#B55B52;" d="M171.374,130c-0.799,7.227-1.633,11.417,1.343,15.713c4.477,6.462,13.872,4.715,16.814-2.129
						c2.648-6.16,3.509-16.944-2.998-21.002C180.121,118.585,172.172,122.772,171.374,130z"/>
					<path style="fill:#0F264C;" d="M170.166,134.444c1.936,0.968,4.334-3.722,4.834-8.667c3.278,3.111,22,2.72,19.167-1.778
						c-4.378-6.949-20.318-8.5-22.806-3.889C166.806,120.306,165.778,132.25,170.166,134.444z"/>
					<path style="fill:#B55B52;" d="M166.779,137.324c0.73,1.82,2.232,3.133,3.724,3.742c2.244,0.917,3.643-1.023,3.252-3.286
						c-0.352-2.037-1.943-4.968-4.307-4.922C167.119,132.903,165.945,135.243,166.779,137.324z"/>
					<path style="fill:#407BFF;" d="M155.215,221.456c0,0-1.009,54.78-0.212,77.123c0.829,23.24,8.946,99.335,8.946,99.335h12.412
						c0,0,0.456-74.737,1.008-97.561c0.602-24.882,3.606-78.897,3.606-78.897H155.215z"/>
					<path style="fill:#9FC6FF;" d="M177.18,394.111c0.058,0,0,4.056,0,4.056h-14.306l-0.602-4.556L177.18,394.111z"/>
					<path style="fill:#2B6AD8;" d="M172.356,235.955c0.237,27.185,1.876,43.696,5.235,56.968c0.43-12.966,1.235-30.11,1.957-44.354
						L172.356,235.955z"/>
					<path style="fill:#407BFF;" d="M169.117,221.456c0,0,8.315,55.992,12.88,76.969c4.999,22.971,23.831,99.489,23.831,99.489
						h13.42c0,0-12.418-74.663-15.27-97.407c-3.096-24.684-9.573-79.051-9.573-79.051H169.117z"/>
					<path style="fill:#9FC6FF;" d="M219.247,394.417c0.057,0,0.668,3.75,0.668,3.75h-14.75l-1.306-4.306L219.247,394.417z"/>
					<path style="fill:#2B6AD8;" d="M213.838,389.985c-0.06,0-0.113-0.043-0.124-0.105c-0.113-0.679-11.314-68.087-13.877-88.52
						c-2.781-22.175-8.641-71.342-8.699-71.836c-0.008-0.068,0.04-0.13,0.109-0.139c0.062-0.011,0.131,0.041,0.139,0.109
						c0.059,0.494,5.918,49.66,8.699,71.834c2.562,20.43,13.763,87.832,13.876,88.511c0.011,0.068-0.035,0.133-0.103,0.144
						C213.852,389.984,213.845,389.985,213.838,389.985z"/>
					<path style="fill:#0F264C;" d="M181.875,133.876c-0.101,0.582,0.126,1.108,0.507,1.174s0.771-0.353,0.872-0.935
						c0.101-0.582-0.126-1.108-0.507-1.174C182.366,132.875,181.976,133.294,181.875,133.876z"/>
					<path style="fill:#0F264C;" d="M188.457,135.016c-0.101,0.582,0.126,1.108,0.507,1.174c0.381,0.066,0.771-0.353,0.872-0.935
						c0.101-0.582-0.126-1.108-0.507-1.174C188.948,134.015,188.558,134.433,188.457,135.016z"/>
					<path style="fill:#A02724;" d="M186.314,134.943c0,0,0.743,3.588,1.92,5.462c-1.197,0.783-2.872,0.04-2.872,0.04
						L186.314,134.943z"/>
					<path style="fill:#0F264C;" d="M183.387,141.759c0.094,0.016,0.184-0.047,0.201-0.141c0.016-0.094-0.047-0.184-0.141-0.201
						c-2.556-0.443-3.44-2.434-3.449-2.454c-0.039-0.088-0.141-0.129-0.228-0.09c-0.088,0.038-0.129,0.139-0.09,0.228
						S180.647,141.285,183.387,141.759z"/>
					<path style="fill:#0F264C;" d="M180.259,131.41c0.104,0.018,0.214-0.011,0.296-0.089c1.132-1.057,2.376-0.766,2.388-0.762
						c0.173,0.05,0.374-0.067,0.42-0.254c0.046-0.186-0.068-0.374-0.254-0.42c-0.066-0.017-1.625-0.383-3.028,0.929
						c-0.14,0.131-0.147,0.351-0.017,0.49C180.118,131.363,180.187,131.398,180.259,131.41z"/>
					<path style="fill:#0F264C;" d="M191.817,133.195c0.051,0.006,0.104,0,0.155-0.019c0.18-0.064,0.274-0.263,0.209-0.444
						c-0.648-1.807-2.202-2.195-2.268-2.211c-0.18-0.05-0.373,0.07-0.418,0.257c-0.044,0.186,0.07,0.372,0.255,0.418l0,0
						c0.052,0.012,1.26,0.328,1.777,1.771C191.574,133.096,191.689,133.181,191.817,133.195z"/>
					<path style="fill:#B55B52;" d="M198.794,162.694l-8.828,5.919c0,0,12.681,22.546,11.616,26.159
						c-1.449,4.917-3.471,15.675-6.219,21.132c0.357,1.176,2.187,3.867,3.206,4.334c6.982-5.326,14.076-22.017,13.81-26.671
						C211.772,182.956,198.794,162.694,198.794,162.694z"/>
					<path style="fill:#9FC6FF;" d="M196.696,157.751c6.932,1.008,14.871,25.029,14.871,25.029l-14.559,8.223
						c0,0-6.412-11.425-9.574-19.908C184.12,162.206,189.261,156.669,196.696,157.751z"/>
					<path style="fill:#407BFF;" d="M208.08,408.255c-0.558,0-1.079-0.095-1.411-0.373c-0.263-0.221-0.384-0.53-0.359-0.918
						c0.018-0.289,0.171-0.426,0.297-0.491c0.802-0.415,3.173,1.036,3.441,1.202c0.059,0.038,0.09,0.107,0.079,0.176
						c-0.012,0.068-0.063,0.123-0.131,0.14C209.488,408.115,208.757,408.255,208.08,408.255z M206.991,406.739
						c-0.091,0-0.167,0.014-0.225,0.043c-0.047,0.024-0.101,0.069-0.109,0.203c-0.018,0.277,0.059,0.483,0.235,0.63
						c0.4,0.337,1.357,0.382,2.601,0.132C208.666,407.269,207.552,406.739,206.991,406.739z"/>
					<path style="fill:#407BFF;" d="M209.956,407.997c-0.029,0-0.057-0.007-0.083-0.02c-0.758-0.412-2.224-2.017-2.069-2.835
						c0.028-0.148,0.137-0.404,0.552-0.454c0.272-0.034,0.518,0.042,0.739,0.222c0.851,0.695,1.026,2.81,1.033,2.9
						c0.005,0.064-0.025,0.125-0.079,0.159C210.022,407.988,209.989,407.997,209.956,407.997z M208.478,405.027
						c-0.026,0-0.052,0.003-0.079,0.005c-0.226,0.027-0.245,0.132-0.253,0.175c-0.092,0.483,0.842,1.696,1.596,2.268
						c-0.085-0.618-0.319-1.85-0.865-2.297C208.752,405.077,208.621,405.027,208.478,405.027z"/>
					<path style="fill:#407BFF;" d="M164.034,408.256c-0.727,0-1.4-0.113-1.78-0.45c-0.242-0.214-0.351-0.499-0.325-0.845
						c0.016-0.206,0.115-0.366,0.286-0.461c0.889-0.5,3.835,0.996,4.168,1.168c0.065,0.034,0.102,0.106,0.091,0.179
						c-0.01,0.073-0.065,0.132-0.138,0.146C165.716,408.118,164.841,408.256,164.034,408.256z M162.708,406.739
						c-0.135,0-0.245,0.02-0.324,0.064c-0.069,0.039-0.102,0.095-0.109,0.186c-0.018,0.234,0.051,0.417,0.21,0.559
						c0.451,0.4,1.657,0.468,3.274,0.199C164.745,407.264,163.401,406.739,162.708,406.739z"/>
					<path style="fill:#407BFF;" d="M166.303,407.997c-0.024,0-0.048-0.005-0.071-0.015c-0.884-0.397-2.636-1.981-2.502-2.81
						c0.031-0.194,0.169-0.436,0.646-0.484c0.348-0.043,0.678,0.064,0.963,0.297c0.932,0.766,1.129,2.739,1.137,2.823
						c0.005,0.061-0.022,0.121-0.072,0.157C166.374,407.987,166.339,407.997,166.303,407.997z M164.516,405.027
						c-0.034,0-0.069,0.003-0.104,0.005c-0.313,0.033-0.332,0.155-0.339,0.195c-0.08,0.497,1.11,1.742,2.013,2.284
						c-0.094-0.576-0.355-1.757-0.967-2.259C164.934,405.102,164.736,405.027,164.516,405.027z"/>
					<path style="fill:#B55B52;" d="M195.363,215.903l-6.969-0.54l3.667,7.712c0,0,6.109,0.27,7.13-4.399L195.363,215.903z"/>
					<polygon style="fill:#B55B52;" points="182.729,218.875 186.392,225.698 192.061,223.076 188.394,215.363 					"/>
				</g>
				<g>
					<polygon style="fill:#55A4F2;" points="138.658,416.043 128.878,416.043 106.688,176.303 116.368,175.403 					"/>
					<polygon style="fill:#55A4F2;" points="158.178,416.043 148.418,416.043 126.048,174.514 135.728,173.613 					"/>
					<polygon style="fill:#7CB4F7;" points="148.418,416.043 138.658,416.043 116.368,175.403 126.048,174.514 					"/>
					<polygon style="fill:#DCE9FF;" points="124.008,157.749 115.295,158.556 106.687,176.303 135.729,173.614 					"/>
					<polygon style="fill:#7CB4F7;" points="118.984,150.951 115.295,158.556 124.008,157.749 					"/>
				</g>
			</g>
			<g>
				<path style="fill:#7CB4F7;" d="M381.357,141.351l-11.35-1.262v0c0.047,7.794-0.697,15.573-2.221,23.217l-3.914,19.63
					l11.35,1.261l3.914-19.63C380.66,156.924,381.404,149.145,381.357,141.351C381.357,141.351,381.357,141.351,381.357,141.351z"/>
				<g>
					<g>
						<polygon style="fill:#C5E1FF;" points="399.516,164.752 224.268,164.752 202.55,416.047 377.798,416.047 						"/>
						<polygon style="fill:#7CB4F7;" points="378.873,403.599 203.626,403.599 202.55,416.047 377.798,416.047 						"/>
					</g>
					<g>
						<polygon style="fill:#FFFFFF;" points="388.095,164.752 212.847,164.752 191.129,416.047 366.376,416.047 						"/>
						<polygon style="fill:#9FC6FF;" points="367.452,403.599 192.205,403.599 191.129,416.047 366.376,416.047 						"/>
					</g>
					<g>
						<g>
							<path style="fill:#9FC6FF;" d="M376.103,177.364H222.695c-0.117,0-0.211-0.095-0.211-0.212s0.095-0.211,0.211-0.211h153.409
								c0.117,0,0.212,0.095,0.212,0.211S376.221,177.364,376.103,177.364z"/>
							<path style="fill:#9FC6FF;" d="M375.231,187.453H221.823c-0.117,0-0.211-0.095-0.211-0.211s0.095-0.211,0.211-0.211h153.409
								c0.117,0,0.212,0.095,0.212,0.211S375.349,187.453,375.231,187.453z"/>
							<path style="fill:#9FC6FF;" d="M374.359,197.542H220.951c-0.117,0-0.212-0.095-0.212-0.211s0.095-0.212,0.212-0.212h153.408
								c0.117,0,0.212,0.095,0.212,0.212S374.477,197.542,374.359,197.542z"/>
							<path style="fill:#9FC6FF;" d="M373.487,207.632H220.079c-0.117,0-0.211-0.095-0.211-0.211s0.095-0.211,0.211-0.211h153.408
								c0.117,0,0.212,0.095,0.212,0.211S373.604,207.632,373.487,207.632z"/>
							<path style="fill:#9FC6FF;" d="M372.615,217.721H219.207c-0.117,0-0.211-0.095-0.211-0.211s0.095-0.212,0.211-0.212h153.408
								c0.117,0,0.212,0.095,0.212,0.212S372.732,217.721,372.615,217.721z"/>
							<path style="fill:#9FC6FF;" d="M371.743,227.811H218.335c-0.117,0-0.212-0.095-0.212-0.211s0.095-0.211,0.212-0.211h153.408
								c0.117,0,0.212,0.095,0.212,0.211S371.86,227.811,371.743,227.811z"/>
							<path style="fill:#9FC6FF;" d="M370.871,237.9H217.463c-0.117,0-0.211-0.095-0.211-0.211c0-0.117,0.095-0.211,0.211-0.211
								h153.408c0.117,0,0.212,0.095,0.212,0.211C371.083,237.805,370.988,237.9,370.871,237.9z"/>
							<path style="fill:#9FC6FF;" d="M370,247.989H216.591c-0.117,0-0.211-0.095-0.211-0.212s0.095-0.211,0.211-0.211H370
								c0.117,0,0.212,0.095,0.212,0.211S370.117,247.989,370,247.989z"/>
							<path style="fill:#9FC6FF;" d="M369.128,258.079H215.719c-0.117,0-0.211-0.095-0.211-0.212c0-0.117,0.095-0.212,0.211-0.212
								h153.409c0.117,0,0.212,0.095,0.212,0.212C369.34,257.984,369.245,258.079,369.128,258.079z"/>
							<path style="fill:#9FC6FF;" d="M368.256,268.169H214.847c-0.117,0-0.211-0.095-0.211-0.212s0.095-0.212,0.211-0.212h153.409
								c0.117,0,0.212,0.095,0.212,0.212S368.373,268.169,368.256,268.169z"/>
							<path style="fill:#9FC6FF;" d="M367.384,278.258H213.975c-0.117,0-0.211-0.095-0.211-0.212s0.095-0.212,0.211-0.212h153.409
								c0.117,0,0.212,0.095,0.212,0.212S367.501,278.258,367.384,278.258z"/>
							<path style="fill:#9FC6FF;" d="M366.512,288.348H213.103c-0.117,0-0.211-0.095-0.211-0.212c0-0.117,0.095-0.212,0.211-0.212
								h153.409c0.117,0,0.212,0.095,0.212,0.212C366.724,288.253,366.629,288.348,366.512,288.348z"/>
							<path style="fill:#9FC6FF;" d="M365.64,298.436H212.231c-0.117,0-0.212-0.095-0.212-0.212c0-0.117,0.095-0.212,0.212-0.212
								H365.64c0.117,0,0.212,0.095,0.212,0.212C365.852,298.342,365.757,298.436,365.64,298.436z"/>
							<path style="fill:#9FC6FF;" d="M364.768,308.526H211.359c-0.117,0-0.212-0.095-0.212-0.212c0-0.117,0.095-0.212,0.212-0.212
								h153.408c0.117,0,0.212,0.095,0.212,0.212C364.979,308.432,364.885,308.526,364.768,308.526z"/>
							<path style="fill:#9FC6FF;" d="M363.895,318.615H210.487c-0.117,0-0.211-0.095-0.211-0.212c0-0.117,0.095-0.212,0.211-0.212
								h153.408c0.117,0,0.212,0.095,0.212,0.212C364.107,318.521,364.013,318.615,363.895,318.615z"/>
							<path style="fill:#9FC6FF;" d="M363.023,328.705H209.615c-0.117,0-0.211-0.095-0.211-0.212c0-0.117,0.095-0.212,0.211-0.212
								h153.408c0.117,0,0.212,0.095,0.212,0.212C363.235,328.61,363.141,328.705,363.023,328.705z"/>
							<path style="fill:#9FC6FF;" d="M362.151,338.794H208.743c-0.117,0-0.212-0.095-0.212-0.212s0.095-0.212,0.212-0.212h153.408
								c0.117,0,0.212,0.095,0.212,0.212S362.269,338.794,362.151,338.794z"/>
							<path style="fill:#9FC6FF;" d="M361.279,348.884H207.871c-0.117,0-0.211-0.095-0.211-0.212c0-0.117,0.095-0.212,0.211-0.212
								h153.408c0.117,0,0.212,0.095,0.212,0.212C361.491,348.789,361.396,348.884,361.279,348.884z"/>
							<path style="fill:#9FC6FF;" d="M360.408,358.973H206.999c-0.117,0-0.211-0.095-0.211-0.212c0-0.117,0.095-0.212,0.211-0.212
								h153.409c0.117,0,0.212,0.095,0.212,0.212C360.62,358.878,360.525,358.973,360.408,358.973z"/>
							<path style="fill:#9FC6FF;" d="M359.536,369.063H206.127c-0.117,0-0.211-0.095-0.211-0.212c0-0.117,0.095-0.212,0.211-0.212
								h153.409c0.117,0,0.212,0.095,0.212,0.212C359.748,368.968,359.653,369.063,359.536,369.063z"/>
							<path style="fill:#9FC6FF;" d="M358.664,379.151H205.255c-0.117,0-0.212-0.095-0.212-0.212c0-0.117,0.095-0.212,0.212-0.212
								h153.409c0.117,0,0.212,0.095,0.212,0.212C358.876,379.057,358.781,379.151,358.664,379.151z"/>
							<path style="fill:#9FC6FF;" d="M357.792,389.241H204.383c-0.117,0-0.211-0.095-0.211-0.212c0-0.117,0.095-0.212,0.211-0.212
								h153.409c0.117,0,0.212,0.095,0.212,0.212C358.004,389.147,357.909,389.241,357.792,389.241z"/>
						</g>
						<path style="fill:#0053CC;" d="M341.399,398.347c-0.003,0-0.006,0-0.009,0c-0.059-0.005-0.102-0.057-0.097-0.114
							l19.644-227.293c0.005-0.058,0.055-0.093,0.114-0.096c0.059,0.005,0.102,0.057,0.097,0.115L341.505,398.25
							C341.5,398.306,341.454,398.347,341.399,398.347z"/>
					</g>
				</g>
				<path style="fill:#0053CC;" d="M357.222,138.423h-11.42l0,0c0.908,7.742,1.027,15.555,0.357,23.321l-1.722,19.942h11.42
					l1.722-19.942C358.249,153.978,358.13,146.164,357.222,138.423C357.222,138.423,357.222,138.423,357.222,138.423z"/>
				<g>
					<path style="fill:#7CB4F7;" d="M257.366,185.674c-0.027,0-0.055-0.004-0.081-0.014c-0.097-0.033-0.164-0.122-0.169-0.224
						c-0.026-0.529-0.281-1.01-0.738-1.39c-0.719-0.599-1.857-0.896-2.889-0.756c-0.799,0.107-1.59,0.377-2.355,0.639
						c-0.842,0.288-1.713,0.585-2.624,0.681c-1.604,0.167-3.269-0.327-4.526-1.332c-0.901,1.429-2.734,2.243-4.396,1.923
						c-1.142-0.223-2.199-0.984-2.827-2.039c-0.397-0.666-1.28-0.895-2.011-0.524c-1.285,0.655-2.62,1.25-3.968,1.768
						c-0.072,0.026-0.15,0.02-0.215-0.017c-0.065-0.038-0.11-0.104-0.122-0.178c-0.049-0.319-0.057-0.65-0.021-0.98
						c0.03-0.279-0.076-0.545-0.284-0.712c-0.187-0.15-0.418-0.19-0.646-0.112c-0.417,0.141-0.925,0.346-1.521,0.794l-0.223,0.169
						c-1.024,0.777-1.864,1.359-2.441,1.278c-0.175-0.026-0.32-0.113-0.421-0.251c-0.197-0.271-0.271-0.632-0.224-1.106
						c0.163-1.669,1.527-3.17,3.173-3.492c0.135-0.029,0.267,0.061,0.293,0.197c0.027,0.135-0.062,0.267-0.197,0.293
						c-1.437,0.281-2.628,1.593-2.77,3.051c-0.034,0.346,0.008,0.596,0.13,0.763c0.018,0.025,0.04,0.043,0.09,0.051
						c0.419,0.063,1.453-0.716,2.066-1.182l0.225-0.17c0.653-0.491,1.206-0.715,1.661-0.869c0.391-0.131,0.8-0.062,1.12,0.196
						c0.342,0.274,0.517,0.706,0.468,1.156c-0.02,0.18-0.024,0.36-0.015,0.537c1.229-0.483,2.444-1.03,3.617-1.628
						c0.963-0.492,2.136-0.178,2.667,0.714c0.557,0.934,1.489,1.608,2.493,1.803c1.556,0.305,3.279-0.527,4.011-1.932
						c0.036-0.068,0.101-0.116,0.177-0.13c0.072-0.012,0.153,0.008,0.211,0.059c1.176,1.046,2.808,1.572,4.374,1.405
						c0.855-0.09,1.699-0.378,2.515-0.657c0.789-0.27,1.603-0.547,2.451-0.661c1.166-0.157,2.454,0.183,3.275,0.867
						c0.408,0.34,0.688,0.749,0.823,1.202c1.591-1.806,3.489-3.594,5.872-3.497c0.247,0.009,0.602,0.052,0.824,0.32
						c0.225,0.271,0.2,0.618,0.16,0.922l-0.275,2.109c1.219-0.683,2.306-1.615,3.165-2.717c0.491-0.631,0.968-1.096,1.414-1.382
						c0.851-0.542,1.446-0.332,1.795-0.059c0.389,0.302,0.534,0.752,0.674,1.187c0.042,0.129,0.084,0.259,0.132,0.382
						c0.118,0.297,0.359,0.57,0.589,0.662c0.112,0.045,0.217,0.047,0.317,0.001c0.126-0.06,0.273-0.003,0.332,0.122
						c0.058,0.126,0.002,0.274-0.123,0.332c-0.223,0.104-0.471,0.106-0.713,0.008c-0.358-0.143-0.698-0.513-0.867-0.942
						c-0.053-0.133-0.098-0.273-0.143-0.412c-0.122-0.379-0.238-0.738-0.505-0.946c-0.33-0.256-0.728-0.229-1.219,0.086
						c-0.394,0.251-0.839,0.69-1.289,1.268c-1.003,1.286-2.302,2.352-3.758,3.081c-0.085,0.041-0.182,0.033-0.257-0.02
						c-0.076-0.054-0.115-0.145-0.104-0.236l0.338-2.589c0.026-0.2,0.047-0.423-0.049-0.538c-0.07-0.085-0.221-0.131-0.457-0.139
						c-0.049-0.002-0.098-0.003-0.146-0.003c-2.279,0-4.122,1.917-5.675,3.723C257.508,185.643,257.438,185.674,257.366,185.674z"/>
					<path style="fill:#7CB4F7;" d="M314.363,185.639c-0.997,0-1.846-0.807-2.304-1.574c-0.217-0.363-0.392-0.75-0.562-1.124
						c-0.209-0.463-0.409-0.905-0.678-1.299c-1.111,0.965-2.43,1.706-3.831,2.148c-0.081,0.027-0.177,0.007-0.242-0.053
						c-0.066-0.059-0.096-0.149-0.078-0.236c0.079-0.384,0.129-0.774,0.148-1.159c0.035-0.661-0.262-1.286-0.793-1.671
						c-0.528-0.383-1.181-0.469-1.793-0.233l-2.88,1.11c-0.457,0.176-1.851,0.711-2.604-0.142c-0.091-0.103-0.166-0.222-0.24-0.342
						c-0.104-0.169-0.194-0.316-0.324-0.378c-0.229-0.108-0.544,0.056-0.825,0.23c-1.832,1.131-3.708,2.227-5.577,3.257
						c-0.741,0.409-1.417,0.747-2.184,0.755c-0.706,0.007-1.404-0.33-1.911-0.924c-0.367-0.431-0.584-0.938-0.63-1.452
						c-1.234,0.978-2.485,1.789-3.944,1.789c-0.008,0-0.016,0-0.024,0c-0.478-0.002-0.851-0.105-1.141-0.314
						c-0.651-0.467-0.737-1.393-0.485-2.065c0.252-0.674,0.772-1.186,1.23-1.636c0.096-0.096,0.255-0.096,0.354,0.003
						c0.097,0.099,0.095,0.257-0.004,0.354c-0.421,0.415-0.898,0.884-1.111,1.455c-0.181,0.483-0.134,1.167,0.309,1.484
						c0.203,0.146,0.481,0.218,0.852,0.22c0.007,0,0.014,0,0.021,0c1.464,0,2.754-0.956,4.056-2.02
						c0.081-0.066,0.194-0.075,0.284-0.023c0.09,0.052,0.138,0.155,0.12,0.258c-0.094,0.551,0.086,1.143,0.496,1.624
						c0.405,0.476,0.954,0.748,1.508,0.748c0.006,0,0.012,0,0.017,0c0.651-0.006,1.268-0.317,1.947-0.692
						c1.862-1.027,3.731-2.119,5.557-3.245c0.259-0.161,0.799-0.498,1.304-0.256c0.263,0.125,0.407,0.36,0.534,0.567
						c0.059,0.095,0.116,0.191,0.189,0.273c0.356,0.4,1.026,0.403,2.051,0.006l2.88-1.11c0.761-0.294,1.607-0.181,2.267,0.295
						c0.669,0.486,1.043,1.272,0.999,2.102c-0.014,0.269-0.042,0.54-0.083,0.811c1.272-0.461,2.459-1.179,3.455-2.092
						c0.051-0.046,0.129-0.066,0.188-0.064c0.069,0.005,0.134,0.04,0.177,0.094c0.391,0.494,0.649,1.065,0.899,1.618
						c0.163,0.362,0.333,0.736,0.535,1.075c0.469,0.785,1.328,1.492,2.177,1.296c0.662-0.151,1.093-0.759,1.55-1.402
						c0.493-0.695,1.002-1.413,1.855-1.601c0.848-0.187,1.589,0.237,2.31,0.646c0.256,0.145,0.52,0.294,0.777,0.408
						c1.525,0.676,3.181,0.274,4.933-0.152c1.364-0.331,2.772-0.676,4.162-0.488c0.137,0.018,0.232,0.144,0.215,0.281
						c-0.018,0.136-0.136,0.236-0.281,0.214c-1.296-0.172-2.659,0.159-3.978,0.479c-1.756,0.428-3.571,0.868-5.254,0.123
						c-0.279-0.124-0.555-0.28-0.82-0.43c-0.67-0.379-1.306-0.735-1.957-0.593c-0.665,0.146-1.097,0.756-1.555,1.401
						c-0.491,0.692-0.999,1.408-1.847,1.601C314.637,185.624,314.498,185.639,314.363,185.639z"/>
					<path style="fill:#7CB4F7;" d="M230.853,195.531c-0.048,0-0.097-0.014-0.139-0.042c-0.076-0.051-0.119-0.139-0.11-0.23
						c0.047-0.523,0.165-1.036,0.347-1.526c-1.517,1.103-3.492,1.544-5.34,1.129c-0.316-0.071-0.678-0.177-0.966-0.429
						c-0.675-0.591-0.568-1.7-0.044-2.365c0.494-0.626,1.25-0.954,1.981-1.235c0.131-0.049,0.274,0.015,0.323,0.144
						c0.049,0.129-0.015,0.273-0.144,0.323c-0.695,0.267-1.352,0.551-1.768,1.078c-0.374,0.475-0.473,1.281-0.019,1.679
						c0.203,0.178,0.491,0.26,0.746,0.317c2.093,0.467,4.459-0.296,5.884-1.903c0.088-0.098,0.236-0.112,0.34-0.032
						c0.104,0.08,0.128,0.227,0.055,0.337c-0.416,0.621-0.699,1.324-0.832,2.058l6.527-3.448c0.109-0.058,0.244-0.027,0.317,0.072
						c0.074,0.099,0.064,0.236-0.021,0.324c-0.107,0.109-0.09,0.254-0.058,0.355c0.074,0.229,0.284,0.424,0.499,0.461
						c0.458,0.081,0.94-0.208,1.349-0.502l0.074-0.053c0.444-0.321,0.947-0.684,1.55-0.71c0.372-0.018,0.724,0.102,1.059,0.215
						c3.278,1.11,6.787,1.501,10.186,1.149c0.532-0.056,1.069-0.128,1.606-0.202c2.064-0.28,4.2-0.57,6.195,0.122
						c0.131,0.045,0.199,0.188,0.154,0.318c-0.045,0.131-0.188,0.2-0.318,0.154c-1.883-0.653-3.958-0.373-5.964-0.099
						c-0.543,0.074-1.084,0.147-1.621,0.203c-3.475,0.361-7.054-0.039-10.358-1.159c-0.346-0.117-0.635-0.221-0.918-0.202
						c-0.453,0.02-0.872,0.323-1.278,0.616l-0.075,0.054c-0.494,0.355-1.085,0.702-1.727,0.588c-0.393-0.068-0.758-0.397-0.888-0.8
						c-0.021-0.064-0.035-0.128-0.043-0.191l-6.443,3.403C230.934,195.521,230.894,195.531,230.853,195.531z"/>
					<path style="fill:#7CB4F7;" d="M271.228,194.908c-0.054,0-0.106-0.017-0.15-0.05c-0.061-0.047-0.099-0.12-0.1-0.197
						l-0.017-1.491c-0.001-0.138,0.109-0.251,0.247-0.252c0.001,0,0.002,0,0.003,0c0.137,0,0.249,0.11,0.25,0.248l0.013,1.16
						c2.035-0.627,3.879-1.769,5.351-3.314c0.045-0.048,0.108-0.076,0.175-0.078c0.072,0.011,0.131,0.023,0.179,0.069
						c0.298,0.285,0.376,0.696,0.444,1.059c0.068,0.36,0.127,0.67,0.358,0.798c0.163,0.09,0.393,0.069,0.611,0.041
						c1.426-0.184,2.813-0.577,4.119-1.169c1.163-0.527,2.76-1.25,3.865-0.333c0.07,0.059,0.137,0.123,0.203,0.188
						c0.113,0.111,0.221,0.215,0.34,0.27c0.133,0.06,0.3,0.066,0.477,0.072c0.106,0.004,0.212,0.008,0.316,0.021
						c0.374,0.05,0.698,0.212,1.013,0.37c0.169,0.084,0.337,0.169,0.513,0.234c0.416,0.153,0.939,0.113,1.101-0.214
						c0.061-0.124,0.214-0.174,0.335-0.114c0.124,0.061,0.175,0.21,0.114,0.334c-0.298,0.603-1.11,0.687-1.722,0.463
						c-0.193-0.071-0.38-0.164-0.565-0.257c-0.289-0.146-0.564-0.283-0.854-0.321c-0.088-0.012-0.179-0.015-0.27-0.018
						c-0.207-0.007-0.441-0.016-0.664-0.116c-0.2-0.09-0.351-0.238-0.483-0.368c-0.057-0.055-0.112-0.11-0.173-0.16
						c-0.867-0.716-2.238-0.095-3.339,0.403c-1.353,0.613-2.787,1.02-4.262,1.21c-0.289,0.037-0.624,0.064-0.918-0.099
						c-0.437-0.242-0.527-0.72-0.608-1.143c-0.04-0.213-0.079-0.419-0.155-0.583c-1.574,1.578-3.532,2.726-5.681,3.327
						C271.273,194.905,271.251,194.908,271.228,194.908z"/>
					<path style="fill:#7CB4F7;" d="M303.87,194.193c-0.085,0-0.17-0.008-0.257-0.025c-0.308-0.061-0.598-0.287-0.737-0.576
						c-0.115-0.239-0.117-0.49-0.005-0.707c0.063-0.124,0.214-0.171,0.336-0.107c0.123,0.063,0.171,0.214,0.107,0.337
						c-0.048,0.094-0.021,0.193,0.012,0.26c0.071,0.148,0.229,0.272,0.385,0.303c0.325,0.065,0.689-0.094,1.027-0.275
						c1.243-0.665,2.346-1.54,3.278-2.598c0.075-0.085,0.196-0.108,0.298-0.06c0.469,0.23,0.547,0.728,0.616,1.168
						c0.037,0.237,0.076,0.482,0.171,0.664c0.104,0.197,0.261,0.325,0.478,0.392c0.578,0.174,1.427-0.114,2.03-0.441l3.597-1.95
						c0.262-0.141,0.657-0.351,1.069-0.263c0.333,0.074,0.561,0.312,0.763,0.523c0.052,0.054,0.103,0.108,0.156,0.158
						c1.177,1.12,3.094,0.487,4.787-0.074l0.316-0.105c3.12-1.021,6.557-1.036,9.686-0.04c0.131,0.042,0.204,0.183,0.162,0.314
						c-0.043,0.132-0.183,0.202-0.314,0.163c-3.027-0.963-6.357-0.95-9.377,0.04l-0.315,0.104c-1.736,0.575-3.895,1.29-5.289-0.038
						c-0.058-0.056-0.115-0.115-0.172-0.175c-0.167-0.174-0.325-0.339-0.51-0.38c-0.21-0.045-0.464,0.074-0.724,0.214l-3.597,1.95
						c-0.337,0.182-1.507,0.753-2.413,0.48c-0.349-0.106-0.609-0.32-0.776-0.637c-0.134-0.254-0.179-0.542-0.223-0.819
						c-0.05-0.314-0.093-0.54-0.201-0.681c-0.939,1.025-2.034,1.877-3.261,2.534C304.628,194.028,304.259,194.193,303.87,194.193z"
						/>
					<path style="fill:#7CB4F7;" d="M250.671,206.653c-0.037,0-0.073-0.008-0.108-0.024c-0.099-0.047-0.156-0.154-0.139-0.264
						c0.222-1.446,0.229-2.908,0.023-4.355c-0.639,0.62-1.361,1.249-2.251,1.571c-1.027,0.374-2.438,0.235-3.138-0.751
						c-0.057-0.08-0.114-0.167-0.172-0.256c-0.278-0.426-0.491-0.724-0.736-0.645c-0.105,0.034-0.206,0.15-0.295,0.251l-2.925,3.365
						c-0.077,0.089-0.206,0.111-0.309,0.055c-0.103-0.057-0.153-0.177-0.12-0.29l0.553-1.867c-2.04,0.044-4.096-0.075-6.117-0.354
						c-0.093-0.013-0.172-0.077-0.202-0.167l-0.295-0.859c-0.984,0.824-2.095,1.693-3.43,2.044
						c-1.321,0.347-3.013,0.056-3.864-1.135c-0.802,0.711-1.996,0.968-3.015,0.629c-0.113-0.038-0.184-0.151-0.168-0.27
						c0.122-0.924,0.98-1.688,1.912-1.702c0.156-0.018,0.252,0.108,0.254,0.246c0.002,0.138-0.108,0.252-0.246,0.254
						c-0.611,0.01-1.197,0.476-1.378,1.059c0.89,0.208,1.89-0.097,2.501-0.779c0.054-0.061,0.134-0.088,0.215-0.082
						c0.081,0.01,0.152,0.058,0.191,0.129c0.645,1.183,2.27,1.487,3.472,1.169c1.354-0.357,2.501-1.324,3.514-2.178
						c0.063-0.053,0.15-0.07,0.228-0.05c0.08,0.022,0.143,0.082,0.17,0.16l0.364,1.059c2.057,0.275,4.148,0.384,6.226,0.32
						c0.078-0.006,0.156,0.034,0.206,0.097c0.049,0.064,0.064,0.147,0.042,0.224l-0.324,1.093l2.17-2.497
						c0.118-0.136,0.28-0.322,0.518-0.399c0.623-0.203,1.02,0.404,1.309,0.847c0.054,0.084,0.107,0.165,0.16,0.239
						c0.557,0.783,1.71,0.88,2.561,0.571c0.951-0.344,1.729-1.116,2.415-1.797c0.067-0.066,0.163-0.088,0.252-0.061
						c0.089,0.028,0.154,0.104,0.17,0.195c0.245,1.392,0.296,2.802,0.155,4.203l2.185-2.397c0.476-0.521,1.067-1.17,1.868-1.405
						c0.921-0.27,1.839,0.061,2.726,0.379c0.877,0.316,1.707,0.613,2.48,0.333c0.132-0.047,0.272,0.02,0.32,0.15
						c0.047,0.13-0.02,0.273-0.15,0.32c-0.945,0.342-1.898-0.001-2.818-0.333c-0.85-0.306-1.651-0.594-2.416-0.371
						c-0.666,0.195-1.184,0.762-1.64,1.262l-2.716,2.981C250.808,206.624,250.74,206.653,250.671,206.653z"/>
					<path style="fill:#7CB4F7;" d="M279.123,204.269c-0.09,0-0.179-0.009-0.268-0.03c-0.692-0.165-0.91-0.847-1.102-1.449
						c-0.129-0.404-0.251-0.789-0.487-1.033c-1.598,1.287-3.659,2.01-5.723,2.011c-0.138,0-0.249-0.113-0.249-0.251
						c0-0.138,0.112-0.249,0.25-0.249h0.001c0.008,0,0.017,0,0.024,0c1.996,0,4.013-0.738,5.536-2.027
						c0.085-0.072,0.209-0.078,0.301-0.017c0.475,0.32,0.66,0.901,0.823,1.413c0.201,0.632,0.352,1.022,0.74,1.115
						c0.22,0.053,0.474-0.025,0.694-0.1c0.927-0.316,1.795-0.773,2.581-1.359c0.248-0.185,0.477-0.356,0.757-0.427
						c0.504-0.127,0.966,0.094,1.378,0.288c0.08,0.038,0.16,0.076,0.239,0.11c1.432,0.625,2.993,0.289,4.647-0.066
						c1.488-0.319,3.026-0.649,4.498-0.237c0.133,0.037,0.211,0.175,0.173,0.308c-0.037,0.133-0.177,0.211-0.308,0.173
						c-1.352-0.378-2.829-0.062-4.259,0.244c-1.659,0.356-3.376,0.722-4.95,0.035c-0.084-0.037-0.168-0.076-0.253-0.116
						c-0.369-0.174-0.714-0.335-1.042-0.256c-0.185,0.047-0.355,0.174-0.534,0.309c-0.875,0.651-1.789,1.133-2.765,1.466
						C279.601,204.202,279.363,204.269,279.123,204.269z"/>
					<path style="fill:#7CB4F7;" d="M222.451,225.567c-0.399,0-0.776-0.074-1.13-0.221c-0.389-0.162-0.667-0.39-0.827-0.678
						c-0.55-0.992,0.444-2.028,1.463-2.615c0.118-0.068,0.272-0.028,0.341,0.092c0.069,0.12,0.027,0.273-0.092,0.341
						c-0.662,0.381-1.675,1.218-1.275,1.938c0.129,0.233,0.388,0.378,0.582,0.459c1.06,0.443,2.413,0.079,4.017-1.082
						c1.118-0.809,2.167-1.725,3.12-2.723c0.049-0.052,0.122-0.078,0.19-0.078c0.071,0.003,0.139,0.036,0.184,0.091
						c0.327,0.398,0.295,0.921,0.267,1.383c-0.025,0.414-0.049,0.805,0.174,1.04c0.196,0.206,0.561,0.259,1.084,0.158
						c1.512-0.292,2.892-1.104,4.227-1.889c0.561-0.331,1.142-0.672,1.729-0.974c0.171-0.089,0.358-0.176,0.573-0.176
						c0.002,0,0.003,0,0.005,0c0.637,0.003,0.822,0.613,0.97,1.104c0.101,0.333,0.205,0.679,0.416,0.849
						c0.284,0.229,0.652,0.107,1.224-0.119c0.34-0.135,0.691-0.275,1.054-0.297c0.575-0.041,1.082,0.247,1.563,0.518
						c0.109,0.062,0.217,0.122,0.325,0.179c0.467,0.244,1.135,0.4,1.481,0.042c0.097-0.099,0.255-0.102,0.354-0.006
						c0.099,0.096,0.102,0.254,0.006,0.354c-0.538,0.556-1.423,0.392-2.072,0.054c-0.113-0.059-0.226-0.123-0.339-0.187
						c-0.438-0.247-0.851-0.492-1.288-0.455c-0.282,0.017-0.595,0.142-0.898,0.262c-0.559,0.222-1.191,0.473-1.723,0.044
						c-0.33-0.267-0.463-0.706-0.58-1.093c-0.157-0.52-0.251-0.747-0.494-0.748c0,0-0.001,0-0.002,0
						c-0.104,0-0.222,0.057-0.344,0.121c-0.576,0.296-1.15,0.634-1.706,0.961c-1.371,0.807-2.788,1.641-4.385,1.949
						c-0.702,0.137-1.22,0.033-1.541-0.305c-0.373-0.393-0.34-0.936-0.311-1.415c0.017-0.28,0.034-0.548-0.024-0.77
						c-0.908,0.923-1.897,1.773-2.945,2.532C224.572,225.113,223.443,225.567,222.451,225.567z"/>
					<path style="fill:#7CB4F7;" d="M255.557,225.624c-0.376,0-0.744-0.069-1.098-0.24c-0.694-0.337-0.996-1.157-0.937-1.794
						c0.053-0.55,0.369-0.955,0.847-1.083c0.131-0.035,0.27,0.044,0.306,0.176c0.036,0.133-0.043,0.271-0.177,0.307
						c-0.371,0.1-0.458,0.448-0.478,0.647c-0.043,0.46,0.19,1.07,0.657,1.296c0.834,0.405,1.856,0.085,2.832-0.281l5.272-1.971
						c0.177-0.066,0.441-0.164,0.71-0.083c0.336,0.102,0.483,0.406,0.602,0.651c0.074,0.155,0.145,0.301,0.244,0.381
						c0.197,0.161,0.551,0.093,1.048-0.204l4.255-2.536c0.212-0.127,0.534-0.321,0.89-0.267c0.657,0.095,0.807,0.776,0.928,1.323
						c0.035,0.162,0.07,0.323,0.117,0.468c0.302,0.92,1.484,1.274,2.411,1.081c0.917-0.194,1.724-0.785,2.503-1.356l0.229-0.168
						c0.466-0.339,1.031-0.69,1.643-0.688c0.442,0.008,0.831,0.195,1.206,0.376l0.077,0.037c1.864,0.895,3.928,1.4,5.997,1.47
						c-0.138-0.289-0.194-0.624-0.164-0.979c0.059-0.667,0.422-1.321,0.948-1.706c0.989-0.726,2.295-0.67,3.221-0.495
						c1.099,0.208,2.174,0.643,3.108,1.254c0.108,0.07,0.216,0.144,0.322,0.217c0.343,0.235,0.667,0.458,1.029,0.59
						c1.061,0.39,2.232-0.044,3.363-0.464c0.293-0.109,0.585-0.217,0.873-0.312c2.842-0.929,5.932-0.516,8.658-0.15l10.712,1.433
						c0.137,0.018,0.232,0.144,0.215,0.281c-0.018,0.136-0.136,0.235-0.281,0.214l-10.712-1.433
						c-2.673-0.358-5.704-0.764-8.435,0.131c-0.283,0.092-0.568,0.198-0.855,0.305c-1.216,0.452-2.475,0.919-3.709,0.465
						c-0.422-0.155-0.787-0.405-1.14-0.647c-0.105-0.071-0.208-0.143-0.314-0.211c-0.881-0.577-1.893-0.985-2.929-1.182
						c-0.824-0.156-1.986-0.212-2.832,0.407c-0.413,0.303-0.699,0.818-0.745,1.346c-0.035,0.405,0.08,0.767,0.324,1.021
						c0.069,0.072,0.089,0.179,0.049,0.271c-0.039,0.092-0.129,0.152-0.229,0.152l0,0c-2.303-0.004-4.616-0.532-6.691-1.528
						l-0.078-0.038c-0.342-0.165-0.664-0.32-0.998-0.327c-0.006,0-0.013,0-0.019,0c-0.466,0-0.907,0.292-1.319,0.593l-0.23,0.167
						c-0.821,0.602-1.672,1.225-2.694,1.442c-1.138,0.241-2.603-0.231-2.989-1.415c-0.053-0.159-0.092-0.337-0.131-0.516
						c-0.122-0.554-0.218-0.894-0.511-0.936c-0.159-0.02-0.361,0.081-0.562,0.201l-4.256,2.537c-0.26,0.155-1.049,0.625-1.618,0.162
						c-0.186-0.151-0.29-0.364-0.38-0.552c-0.105-0.219-0.179-0.354-0.296-0.39c-0.097-0.027-0.235,0.016-0.391,0.073l-5.272,1.971
						C256.984,225.384,256.258,225.624,255.557,225.624z"/>
					<path style="fill:#7CB4F7;" d="M329.55,223.768c-0.233,0-0.461-0.042-0.673-0.168c-0.266-0.158-0.438-0.482-0.427-0.806
						c0.009-0.262,0.138-0.475,0.353-0.583c0.123-0.061,0.274-0.012,0.336,0.11c0.062,0.124,0.013,0.274-0.111,0.336
						c-0.049,0.025-0.075,0.077-0.078,0.154c-0.005,0.14,0.073,0.294,0.183,0.359c0.252,0.151,0.615,0.098,0.962,0.031
						c1.887-0.365,3.771-0.836,5.604-1.401c0.917-0.284,2.003-0.288,2.288,0.552c0.034,0.099,0.051,0.204,0.066,0.309
						c0.018,0.124,0.034,0.23,0.083,0.296c0.093,0.125,0.344,0.134,0.551,0.13c2.696-0.068,5.361-0.534,7.921-1.383
						c0.131-0.044,0.272,0.027,0.316,0.159c0.043,0.131-0.027,0.272-0.158,0.316c-2.606,0.865-5.321,1.338-8.067,1.408
						c-0.34,0.006-0.733-0.023-0.963-0.331c-0.125-0.167-0.153-0.356-0.178-0.522c-0.011-0.075-0.021-0.151-0.045-0.221
						c-0.225-0.659-1.52-0.281-1.668-0.235c-1.849,0.57-3.752,1.046-5.655,1.415C329.978,223.732,329.763,223.768,329.55,223.768z"
						/>
					<path style="fill:#7CB4F7;" d="M213.645,356.956c-0.375,0-0.744-0.069-1.097-0.241c-0.694-0.337-0.997-1.157-0.936-1.794
						c0.052-0.55,0.369-0.954,0.846-1.082c0.136-0.036,0.271,0.043,0.307,0.177c0.036,0.133-0.043,0.271-0.177,0.306
						c-0.372,0.1-0.46,0.448-0.478,0.648c-0.044,0.459,0.19,1.07,0.657,1.297c0.834,0.405,1.857,0.083,2.833-0.282l5.272-1.971
						c0.175-0.065,0.438-0.166,0.71-0.083c0.336,0.102,0.483,0.406,0.602,0.651c0.074,0.154,0.145,0.301,0.244,0.381
						c0.198,0.161,0.551,0.093,1.047-0.204l4.255-2.536c0.212-0.126,0.534-0.315,0.89-0.266c0.658,0.095,0.808,0.775,0.928,1.322
						c0.036,0.163,0.071,0.324,0.118,0.469c0.3,0.918,1.483,1.273,2.411,1.081c0.916-0.195,1.72-0.784,2.498-1.353l0.235-0.172
						c0.465-0.339,1.033-0.685,1.642-0.688c0.444,0.009,0.832,0.195,1.208,0.377l0.076,0.036c1.867,0.896,3.93,1.4,5.997,1.47
						c-0.137-0.289-0.194-0.623-0.163-0.979c0.058-0.666,0.421-1.32,0.947-1.706c0.99-0.723,2.297-0.666,3.22-0.495
						c1.099,0.21,2.174,0.643,3.109,1.255c0.106,0.069,0.211,0.141,0.315,0.213c0.345,0.237,0.671,0.461,1.036,0.596
						c1.063,0.391,2.231-0.044,3.362-0.465c0.294-0.109,0.586-0.217,0.874-0.311c2.84-0.929,5.932-0.516,8.658-0.151l10.711,1.433
						c0.137,0.019,0.232,0.145,0.215,0.281c-0.018,0.137-0.137,0.228-0.281,0.215l-10.711-1.433
						c-2.675-0.357-5.707-0.762-8.436,0.13c-0.283,0.093-0.568,0.199-0.856,0.306c-1.216,0.451-2.474,0.921-3.708,0.465
						c-0.425-0.156-0.792-0.408-1.148-0.652c-0.102-0.069-0.203-0.14-0.306-0.207c-0.88-0.575-1.893-0.984-2.929-1.182
						c-0.825-0.153-1.987-0.21-2.831,0.408c-0.414,0.303-0.699,0.818-0.745,1.346c-0.035,0.404,0.08,0.767,0.323,1.021
						c0.07,0.072,0.089,0.179,0.05,0.271c-0.04,0.092-0.13,0.151-0.23,0.151c0,0,0,0,0,0c-2.299-0.003-4.613-0.531-6.69-1.527
						l-0.077-0.037c-0.342-0.165-0.665-0.321-0.999-0.327c-0.006,0-0.013,0-0.02,0c-0.465,0-0.907,0.292-1.319,0.593l-0.233,0.171
						c-0.82,0.601-1.668,1.222-2.69,1.439c-1.135,0.244-2.603-0.232-2.99-1.415c-0.052-0.159-0.091-0.336-0.131-0.516
						c-0.122-0.554-0.217-0.893-0.511-0.936c-0.17-0.018-0.354,0.077-0.563,0.201l-4.254,2.536
						c-0.259,0.156-1.047,0.628-1.619,0.163c-0.186-0.151-0.289-0.364-0.379-0.553c-0.105-0.219-0.178-0.355-0.295-0.39
						c-0.1-0.032-0.242,0.018-0.39,0.073l-5.273,1.971C215.074,356.715,214.347,356.956,213.645,356.956z"/>
					<path style="fill:#7CB4F7;" d="M287.643,355.098c-0.233,0-0.465-0.042-0.676-0.168c-0.267-0.157-0.439-0.481-0.427-0.806
						c0.009-0.263,0.138-0.476,0.354-0.584c0.125-0.059,0.274-0.012,0.336,0.111c0.061,0.123,0.012,0.273-0.111,0.336
						c-0.05,0.024-0.076,0.076-0.078,0.153c-0.005,0.141,0.073,0.295,0.182,0.359c0.256,0.151,0.614,0.098,0.962,0.031
						c1.883-0.364,3.768-0.836,5.604-1.402c0.918-0.282,2.004-0.286,2.289,0.554c0.034,0.099,0.051,0.204,0.066,0.309
						c0.018,0.123,0.034,0.229,0.083,0.296c0.093,0.125,0.344,0.136,0.551,0.13c2.696-0.068,5.361-0.534,7.921-1.383
						c0.132-0.043,0.273,0.027,0.316,0.158c0.043,0.132-0.027,0.272-0.158,0.316c-2.606,0.864-5.321,1.338-8.066,1.408
						c-0.352,0.012-0.733-0.023-0.964-0.331c-0.125-0.167-0.153-0.355-0.178-0.521c-0.011-0.075-0.02-0.151-0.045-0.222
						c-0.225-0.658-1.521-0.283-1.669-0.235c-1.853,0.571-3.755,1.047-5.655,1.414C288.076,355.061,287.858,355.098,287.643,355.098
						z"/>
					<path style="fill:#7CB4F7;" d="M268.474,235.371c-0.95,0-2.001-0.207-2.882-0.889c-0.359-0.278-0.655-0.647-0.866-1.065
						c-0.271,0.208-0.573,0.369-0.887,0.466c-1.628,0.504-3.316-0.238-4.445-0.949c-0.19-0.12-0.386-0.241-0.543-0.232
						c-0.198,0.005-0.391,0.171-0.588,0.356l-0.706,0.667c-0.548,0.516-1.313,0.723-2.042,0.559
						c-0.731-0.165-1.331-0.68-1.604-1.379l-0.319-0.817c-3.059,1.124-6.483,1.414-9.685,0.814c-1.17,0.661-2.489,1.099-3.821,1.269
						c-0.076,0.012-0.15-0.015-0.204-0.067c-0.054-0.052-0.083-0.126-0.076-0.201c0.054-0.665-0.078-1.346-0.374-1.945
						c-1.296,0.583-2.762,0.74-4.152,0.442l-0.277-0.064c-0.319-0.076-0.62-0.15-0.918-0.135c-0.468,0.019-0.922,0.248-1.346,0.481
						l-0.475,0.265c-0.928,0.521-1.888,1.061-2.968,1.234c-1.183,0.188-2.622-0.199-3.259-1.281
						c-0.68,0.449-1.405,0.826-2.196,0.693c-0.54-0.091-1.039-0.572-1.185-1.143c-0.113-0.442,0.007-0.842,0.33-1.097
						c0.108-0.086,0.265-0.068,0.351,0.042c0.085,0.108,0.067,0.266-0.042,0.351c-0.209,0.165-0.2,0.406-0.155,0.58
						c0.098,0.382,0.435,0.715,0.784,0.774c0.7,0.122,1.404-0.316,2.067-0.771c0.062-0.043,0.137-0.056,0.212-0.034
						c0.072,0.021,0.131,0.073,0.16,0.142c0.439,1.039,1.799,1.419,2.855,1.25c0.992-0.158,1.912-0.676,2.802-1.176l0.48-0.268
						c0.476-0.261,0.989-0.519,1.566-0.543c0.373-0.01,0.717,0.069,1.054,0.148l0.267,0.062c1.362,0.292,2.798,0.114,4.044-0.505
						c0.117-0.059,0.261-0.016,0.328,0.1c0.369,0.642,0.564,1.386,0.56,2.127c1.197-0.189,2.374-0.605,3.421-1.209
						c0.052-0.03,0.114-0.039,0.172-0.029c3.221,0.62,6.676,0.315,9.734-0.86c0.125-0.049,0.273,0.014,0.322,0.143l0.409,1.047
						c0.216,0.551,0.671,0.942,1.249,1.073c0.576,0.13,1.157-0.028,1.589-0.435l0.706-0.667c0.204-0.192,0.513-0.482,0.919-0.492
						c0.326,0.001,0.58,0.157,0.809,0.302c1.051,0.662,2.595,1.351,4.042,0.902c0.3-0.093,0.586-0.255,0.836-0.468
						c-0.108-0.33-0.167-0.678-0.169-1.028c-0.003-0.817,0.31-1.516,0.883-1.967c0.055-0.044,0.126-0.064,0.195-0.05
						c0.069,0.011,0.131,0.052,0.169,0.11c0.37,0.571,0.431,1.28,0.171,1.997c-0.143,0.393-0.373,0.758-0.661,1.065
						c0.182,0.406,0.452,0.765,0.784,1.022c1.406,1.087,3.345,0.809,4.377,0.546c0.762-0.194,1.517-0.481,2.247-0.759
						c0.74-0.281,1.506-0.573,2.293-0.773c1.199-0.307,2.445-0.404,3.651-0.498c0.977-0.077,1.988-0.156,2.957-0.346
						c0.377-0.075,0.761-0.166,1.146-0.257c1.668-0.394,3.392-0.804,4.914,0.003c0.122,0.064,0.168,0.216,0.104,0.338
						c-0.065,0.122-0.217,0.169-0.338,0.104c-1.354-0.718-2.987-0.332-4.565,0.042c-0.392,0.093-0.782,0.185-1.165,0.26
						c-0.998,0.197-2.023,0.277-3.016,0.355c-1.184,0.092-2.408,0.188-3.566,0.484c-0.759,0.194-1.511,0.48-2.238,0.756
						c-0.743,0.283-1.512,0.575-2.302,0.776C269.906,235.243,269.221,235.371,268.474,235.371z M265.325,230.547
						c-0.306,0.348-0.47,0.82-0.468,1.36c0.001,0.203,0.025,0.406,0.071,0.606c0.159-0.208,0.288-0.44,0.377-0.685
						C265.47,231.375,265.475,230.931,265.325,230.547z"/>
					<path style="fill:#7CB4F7;" d="M305.404,234.503c-0.294,0-0.59-0.021-0.889-0.064c-0.067-0.01-0.128-0.047-0.167-0.102
						c-0.04-0.055-0.055-0.124-0.043-0.191c0.082-0.442,0.054-0.91-0.077-1.343c-2.623,1.099-5.584,1.385-8.368,0.801
						c-0.082-0.017-0.15-0.074-0.182-0.151c-0.03-0.078-0.021-0.165,0.026-0.234l0.761-1.113c0.078-0.114,0.232-0.142,0.348-0.066
						c0.113,0.078,0.143,0.234,0.064,0.348l-0.546,0.799c2.66,0.48,5.468,0.148,7.941-0.947c0.063-0.027,0.133-0.029,0.195-0.003
						s0.112,0.075,0.138,0.138c0.204,0.502,0.283,1.061,0.229,1.601c2.216,0.218,4.333-0.929,6.378-2.045
						c0.586-0.319,1.19-0.649,1.788-0.941c0.314-0.154,0.684-0.309,1.065-0.199c0.425,0.12,0.645,0.494,0.839,0.823
						c0.05,0.084,0.099,0.167,0.151,0.246c0.795,1.187,2.612,1.163,3.995,0.934c0.468-0.077,0.897-0.148,1.333-0.061
						c0.338,0.068,0.634,0.225,0.92,0.376c0.098,0.052,0.195,0.104,0.295,0.151c1.662,0.798,3.82,0.531,6.605-0.82
						c1.338-0.65,2.866-1.273,4.059-0.446c0.113,0.079,0.142,0.234,0.063,0.348c-0.078,0.114-0.234,0.141-0.348,0.063
						c-0.971-0.675-2.345-0.102-3.555,0.485c-2.933,1.421-5.235,1.69-7.041,0.82c-0.104-0.05-0.208-0.105-0.311-0.159
						c-0.267-0.141-0.518-0.273-0.786-0.328c-0.343-0.07-0.71-0.009-1.099,0.055c-2.25,0.373-3.8-0.026-4.546-1.14
						c-0.058-0.086-0.111-0.178-0.166-0.27c-0.16-0.273-0.313-0.53-0.545-0.596c-0.213-0.063-0.468,0.049-0.71,0.167
						c-0.587,0.287-1.186,0.614-1.767,0.93C309.524,233.421,307.537,234.503,305.404,234.503z"/>
					<path style="fill:#7CB4F7;" d="M221.538,254.723c-0.08,0-0.16-0.008-0.24-0.023c-0.678-0.135-1.059-0.827-1.084-1.442
						c-0.024-0.604,0.215-1.163,0.425-1.656c0.054-0.127,0.201-0.186,0.328-0.131c0.127,0.054,0.186,0.201,0.132,0.328
						c-0.19,0.444-0.405,0.948-0.385,1.439c0.017,0.408,0.261,0.889,0.682,0.972c0.246,0.05,0.515-0.041,0.772-0.145
						c1.037-0.421,1.976-1.087,2.716-1.928c0.066-0.074,0.17-0.105,0.265-0.072c0.422,0.137,0.487,0.557,0.54,0.893
						c0.032,0.206,0.065,0.419,0.166,0.533c0.136,0.153,0.425,0.16,0.88,0.018c1.541-0.488,3.063-1.086,4.524-1.775
						c0.208-0.1,0.928-0.403,1.468-0.197c0.214,0.082,0.374,0.236,0.463,0.445c0.074,0.175,0.078,0.357,0.082,0.518
						c0.004,0.155,0.007,0.29,0.069,0.367c0.086,0.108,0.306,0.115,0.651,0.019l3.97-1.1c0.739-0.206,1.658-0.461,2.528-0.191
						c0.52,0.161,0.979,0.569,1.198,1.065c0.133,0.3,0.166,0.61,0.098,0.897c1.284,0.493,2.813,0.334,3.959-0.426
						c0.113-0.077,0.269-0.047,0.347,0.07c0.076,0.114,0.045,0.27-0.07,0.346c-1.349,0.895-3.174,1.042-4.65,0.378
						c-0.061-0.027-0.109-0.078-0.132-0.141c-0.023-0.063-0.02-0.133,0.008-0.193c0.13-0.276,0.062-0.55-0.017-0.73
						c-0.16-0.362-0.509-0.672-0.888-0.789c-0.732-0.227-1.571,0.007-2.246,0.195l-3.97,1.1c-0.207,0.057-0.835,0.23-1.174-0.188
						c-0.167-0.21-0.174-0.453-0.179-0.669c-0.003-0.127-0.006-0.247-0.043-0.335c-0.036-0.084-0.093-0.139-0.181-0.173
						c-0.231-0.089-0.653-0.018-1.075,0.183c-1.482,0.699-3.025,1.305-4.587,1.8c-0.245,0.078-0.987,0.311-1.406-0.163
						c-0.197-0.225-0.244-0.523-0.285-0.787c-0.029-0.186-0.053-0.314-0.093-0.395c-0.765,0.817-1.71,1.467-2.745,1.887
						C222.11,254.627,221.829,254.723,221.538,254.723z"/>
					<path style="fill:#7CB4F7;" d="M257.193,256.751c-0.794,0-1.069-0.448-1.167-0.743c-0.198-0.598,0.028-1.45,0.495-2.228
						c-0.739,0.294-1.537,0.439-2.331,0.438c-1.097-0.012-1.943-0.41-2.324-1.092c-0.26-0.467-0.192-1.118,0.163-1.583
						c0.283-0.37,0.69-0.531,1.096-0.431c0.134,0.033,0.216,0.169,0.182,0.303c-0.032,0.133-0.163,0.221-0.303,0.182
						c-0.277-0.066-0.483,0.127-0.577,0.25c-0.201,0.263-0.309,0.703-0.123,1.035c0.412,0.74,1.461,0.831,1.893,0.836
						c0.021,0,0.042,0,0.064,0c1.04,0,2.07-0.299,2.953-0.843c0.295-0.306,0.625-0.565,0.971-0.743
						c0.11-0.06,0.245-0.026,0.319,0.077c0.071,0.1,0.059,0.24-0.032,0.326c-0.292,0.277-0.612,0.524-0.952,0.738
						c-0.766,0.82-1.219,1.97-1.018,2.576c0.113,0.342,0.45,0.472,1.004,0.379c2.059-0.743,3.336-1.764,4.954-3.055
						c0.35-0.279,0.714-0.57,1.103-0.871c0.088-0.067,0.208-0.068,0.298-0.007c0.09,0.063,0.127,0.178,0.093,0.282l-0.534,1.63
						c2.422-0.182,4.795-1.08,6.725-2.552c0.013-0.009,0.024-0.018,0.037-0.027c0.109-0.083,0.266-0.061,0.35,0.048
						c0.083,0.109,0.063,0.266-0.047,0.35c-0.012,0.009-0.023,0.018-0.035,0.026c-0.681,0.528-1.172,1.282-1.383,2.114l6.289-1.456
						c0.215-0.051,0.615-0.145,0.921,0.086c0.244,0.183,0.305,0.471,0.353,0.702c0.012,0.061,0.024,0.12,0.04,0.178
						c0.304,1.113,2.026,1.151,2.754,1.114c2.117-0.106,2.724-0.345,3.73-0.741c0.58-0.229,1.302-0.514,2.505-0.848
						c0.289-0.017,0.473,0.05,0.583,0.194c0.209,0.272,0.08,0.68-0.056,1.111c-0.091,0.292-0.229,0.732-0.118,0.844
						c0.033,0.031,0.25,0.181,1.27-0.149l5.385-3.175c0.526-0.311,1.184-0.698,1.914-0.655c0.944,0.053,1.669,0.797,2.195,1.441
						l0.102,0.126c0.477,0.586,0.969,1.192,1.642,1.401c0.378,0.115,0.855,0.014,1.168-0.25c0.147-0.123,0.313-0.33,0.275-0.619
						c-0.015-0.117,0.054-0.229,0.164-0.268c0.107-0.039,0.234,0.003,0.296,0.104c0.421,0.676,1.054,1.216,1.787,1.527
						c0.504-0.093,0.746-0.646,1.024-1.281c0.285-0.65,0.607-1.388,1.318-1.628c0.48-0.161,0.978-0.031,1.418,0.084
						c6.498,1.715,13.565,0.948,19.798,0.272c0.15-0.018,0.261,0.085,0.276,0.222c0.015,0.138-0.085,0.261-0.222,0.276
						c-6.279,0.679-13.394,1.447-19.965-0.282c-0.405-0.107-0.806-0.214-1.145-0.099c-0.502,0.17-0.754,0.745-1.021,1.355
						c-0.307,0.701-0.654,1.496-1.487,1.587c-0.046,0.005-0.082-0.001-0.121-0.018c-0.672-0.271-1.272-0.713-1.735-1.268
						c-0.078,0.153-0.191,0.294-0.339,0.419c-0.441,0.372-1.098,0.512-1.639,0.345c-0.816-0.254-1.383-0.95-1.881-1.564
						l-0.102-0.125c-0.49-0.599-1.091-1.216-1.836-1.257c-0.587-0.047-1.164,0.311-1.633,0.587l-5.436,3.197
						c-0.991,0.325-1.538,0.333-1.825,0.05c-0.327-0.326-0.156-0.869-0.006-1.349c0.063-0.2,0.18-0.572,0.134-0.658
						c0,0.002-0.023-0.007-0.083-0.007c-0.008,0-0.016,0-0.024,0.001c-1.121,0.317-1.83,0.597-2.398,0.821
						c-1.018,0.401-1.69,0.667-3.888,0.776c-1.785,0.086-2.979-0.452-3.262-1.483c-0.018-0.066-0.033-0.137-0.048-0.207
						c-0.035-0.172-0.069-0.334-0.161-0.403c-0.111-0.082-0.321-0.042-0.509,0l-6.667,1.544c-0.081,0.021-0.166-0.004-0.227-0.06
						c-0.06-0.057-0.09-0.139-0.077-0.221c0.075-0.506,0.243-0.995,0.488-1.442c-1.799,1.02-3.844,1.617-5.907,1.711
						c-0.082,0.001-0.16-0.033-0.211-0.099c-0.05-0.065-0.064-0.151-0.038-0.23l0.392-1.195c-0.152,0.121-0.303,0.241-0.45,0.358
						c-1.653,1.32-2.96,2.363-5.141,3.147C257.469,256.738,257.324,256.751,257.193,256.751z"/>
				</g>
			</g>
		</g>
	</g>
</g>
<g id="Designed_by_Freepik">
	<g>
		<g>
			<g id="XMLID_197_">
				<g id="XMLID_216_">
					<path id="XMLID_224_" style="fill:#A5B7C6;" d="M261.442,464.892c-0.49,0.502-0.91,1.054-1.255,1.646l-0.527-0.273
						c-0.076-0.337-0.396-0.569-0.746-0.528c-0.375,0.044-0.643,0.384-0.599,0.759c0.044,0.375,0.384,0.643,0.758,0.599
						c0.074-0.009,0.144-0.029,0.208-0.059l0.511,0.265c-0.284,0.627-0.49,1.289-0.611,1.975l0.845,0.149
						c0.26-1.479,0.962-2.839,2.029-3.932L261.442,464.892z"/>
					<path id="XMLID_223_" style="fill:#A5B7C6;" d="M267.656,462.285c-0.194,0-0.386,0.007-0.577,0.019l-0.083-0.709
						c0.212-0.169,0.335-0.44,0.301-0.73c-0.052-0.445-0.456-0.763-0.901-0.711c-0.445,0.052-0.763,0.455-0.711,0.901
						c0.034,0.288,0.214,0.522,0.458,0.638l0.083,0.707c-0.808,0.132-1.589,0.376-2.332,0.732l0.37,0.774
						c1.058-0.506,2.199-0.762,3.392-0.762c0.562,0,1.124,0.06,1.67,0.178l0.182-0.839
						C268.903,462.352,268.279,462.285,267.656,462.285z"/>
					<path id="XMLID_222_" style="fill:#A5B7C6;" d="M275.133,465.17c0.375-0.046,0.641-0.387,0.595-0.761
						c-0.046-0.375-0.387-0.641-0.761-0.595c-0.35,0.043-0.606,0.344-0.6,0.689l-0.471,0.411c-0.473-0.487-1.007-0.92-1.594-1.29
						l-0.458,0.726c1.284,0.809,2.288,1.955,2.903,3.313l0.782-0.354c-0.284-0.627-0.643-1.214-1.067-1.75l0.455-0.397
						C274.986,465.175,275.059,465.179,275.133,465.17z"/>
					<path id="XMLID_221_" style="fill:#A5B7C6;" d="M267.036,473.845c-0.437,0.026-0.878,0.039-1.31,0.039
						c-0.997,0-1.962-0.069-2.807-0.203c-0.442-0.07-0.958-0.176-1.438-0.331c1.185,2.107,3.476,3.539,6.102,3.539
						c3.233,0,5.959-2.17,6.737-5.1c-0.772,0.509-1.705,0.935-2.784,1.271C270.201,473.478,268.643,473.749,267.036,473.845z"/>
					<path id="XMLID_217_" style="fill:#A5B7C6;" d="M267.656,464.002c-3.796,0-6.884,3.019-6.884,6.73
						c0,0.482,0.052,0.962,0.155,1.428c0.763,0.547,3.064,1.008,6.055,0.828c3.261-0.196,5.998-1.084,7.556-2.444
						c-0.006-0.221-0.023-0.442-0.051-0.659C274.056,466.531,271.12,464.002,267.656,464.002z M265.211,471.38
						c-1.155,0-2.095-0.94-2.095-2.095c0-1.155,0.94-2.095,2.095-2.095c1.155,0,2.095,0.94,2.095,2.095
						C267.306,470.44,266.366,471.38,265.211,471.38z M270.576,470.351c-0.849,0-1.54-0.691-1.54-1.54
						c0-0.849,0.691-1.541,1.54-1.541c0.849,0,1.541,0.691,1.541,1.541C272.116,469.66,271.425,470.351,270.576,470.351z"/>
				</g>
				<path id="XMLID_214_" style="fill:#A5B7C6;" d="M285.779,466.116c-0.334-0.131-0.912-0.35-1.565-0.269
					c-0.624,0.078-0.956,0.386-0.956,1.14v0.981h2.523v1.945h-2.523v6.177h-2.188v-6.177h-1.517v-1.945h1.517v-1.006
					c0-1.902,1.014-3.151,2.908-3.151c0.728,0,1.31,0.138,1.8,0.349L285.779,466.116z"/>
				<path id="XMLID_212_" style="fill:#A5B7C6;" d="M291.104,469.89c-0.2-0.034-0.405-0.052-0.596-0.052
					c-1.014,0-1.71,0.62-1.71,1.827v4.425h-2.188v-8.122h2.12v0.888c0.511-0.763,1.291-1.106,2.288-1.106
					c0.469,0,0.96,0.144,1.239,0.381L291.104,469.89z"/>
				<path id="XMLID_209_" style="fill:#A5B7C6;" d="M299.786,472.017c0,0.251-0.017,0.553-0.042,0.738h-5.758
					c0.235,1.173,1.056,1.685,2.087,1.685c0.704,0,1.467-0.285,2.053-0.779l1.282,1.408c-0.922,0.846-2.095,1.232-3.461,1.232
					c-2.489,0-4.216-1.693-4.216-4.249c0-2.556,1.676-4.3,4.107-4.3C298.177,467.75,299.778,469.485,299.786,472.017z
					 M293.995,471.262h3.595c-0.201-1.039-0.83-1.626-1.768-1.626C294.791,469.636,294.187,470.257,293.995,471.262z"/>
				<path id="XMLID_206_" style="fill:#A5B7C6;" d="M308.453,472.017c0,0.251-0.017,0.553-0.042,0.738h-5.758
					c0.235,1.173,1.056,1.685,2.087,1.685c0.704,0,1.467-0.285,2.053-0.779l1.282,1.408c-0.922,0.846-2.095,1.232-3.461,1.232
					c-2.489,0-4.216-1.693-4.216-4.249c0-2.556,1.676-4.3,4.107-4.3C306.843,467.75,308.444,469.485,308.453,472.017z
					 M302.661,471.262h3.596c-0.201-1.039-0.83-1.626-1.768-1.626C303.457,469.636,302.854,470.257,302.661,471.262z"/>
				<path id="XMLID_203_" style="fill:#A5B7C6;" d="M317.903,472.025c0,2.439-1.693,4.275-3.931,4.275
					c-1.09,0-1.861-0.428-2.389-1.056v4.199h-2.179v-11.474h2.137v0.897c0.528-0.662,1.307-1.115,2.422-1.115
					C316.21,467.75,317.903,469.586,317.903,472.025z M311.475,472.025c0,1.282,0.846,2.238,2.087,2.238
					c1.291,0,2.095-0.997,2.095-2.238c0-1.24-0.805-2.238-2.095-2.238C312.321,469.787,311.475,470.742,311.475,472.025z"/>
				<path id="XMLID_200_" style="fill:#A5B7C6;" d="M321.418,465.311c0,0.788-0.612,1.391-1.4,1.391
					c-0.788,0-1.391-0.603-1.391-1.391c0-0.788,0.604-1.408,1.391-1.408C320.806,463.903,321.418,464.524,321.418,465.311z
					 M321.124,476.09h-2.188v-8.122h2.188V476.09z"/>
				<path id="XMLID_198_" style="fill:#A5B7C6;" d="M324.775,470.86l3.059-2.892h2.682l-3.939,3.822l3.964,4.3h-2.69l-3.076-3.285
					v3.285h-2.188v-12.069h2.188V470.86z"/>
			</g>
			<g>
				<path style="fill:#A5B7C6;" d="M175.729,476.016v-1.194c-0.597,0.813-1.576,1.393-2.704,1.393c-2.09,0-3.566-1.592-3.566-4.196
					c0-2.555,1.46-4.213,3.566-4.213c1.078,0,2.057,0.531,2.704,1.41v-4.263h1.244v11.064H175.729z M175.729,473.843v-3.633
					c-0.448-0.697-1.41-1.294-2.405-1.294c-1.609,0-2.571,1.327-2.571,3.102c0,1.775,0.962,3.085,2.571,3.085
					C174.319,475.104,175.281,474.54,175.729,473.843z"/>
				<path style="fill:#A5B7C6;" d="M178.582,472.002c0-2.322,1.659-4.197,3.948-4.197c2.422,0,3.848,1.891,3.848,4.296v0.316h-6.486
					c0.1,1.509,1.161,2.77,2.886,2.77c0.912,0,1.841-0.365,2.471-1.012l0.597,0.813c-0.796,0.796-1.874,1.227-3.185,1.227
					C180.29,476.215,178.582,474.507,178.582,472.002z M182.513,468.834c-1.709,0-2.555,1.443-2.621,2.67h5.258
					C185.134,470.31,184.337,468.834,182.513,468.834z"/>
				<path style="fill:#A5B7C6;" d="M187.273,474.955l0.647-0.895c0.531,0.614,1.543,1.145,2.637,1.145
					c1.228,0,1.891-0.581,1.891-1.377c0-1.94-4.96-0.746-4.96-3.716c0-1.244,1.078-2.306,2.985-2.306
					c1.36,0,2.323,0.514,2.969,1.161l-0.581,0.863c-0.481-0.581-1.36-1.012-2.389-1.012c-1.095,0-1.775,0.547-1.775,1.261
					c0,1.758,4.96,0.597,4.96,3.716c0,1.344-1.078,2.422-3.151,2.422C189.197,476.215,188.086,475.817,187.273,474.955z"/>
				<path style="fill:#A5B7C6;" d="M195.053,466.031c0-0.464,0.382-0.846,0.829-0.846c0.465,0,0.846,0.381,0.846,0.846
					c0,0.465-0.381,0.829-0.846,0.829C195.434,466.86,195.053,466.495,195.053,466.031z M195.268,476.016v-8.012h1.244v8.012
					H195.268z"/>
				<path style="fill:#A5B7C6;" d="M198.569,478.073l0.63-0.929c0.663,0.796,1.46,1.095,2.604,1.095
					c1.327,0,2.571-0.647,2.571-2.405v-1.145c-0.581,0.813-1.559,1.427-2.687,1.427c-2.09,0-3.566-1.559-3.566-4.147
					c0-2.571,1.46-4.163,3.566-4.163c1.078,0,2.04,0.531,2.687,1.41v-1.211h1.244v7.78c0,2.654-1.858,3.483-3.815,3.483
					C200.443,479.267,199.514,479.002,198.569,478.073z M204.374,473.711v-3.5c-0.432-0.697-1.393-1.294-2.389-1.294
					c-1.609,0-2.571,1.277-2.571,3.052c0,1.758,0.962,3.052,2.571,3.052C202.981,475.021,203.943,474.408,204.374,473.711z"/>
				<path style="fill:#A5B7C6;" d="M213.099,476.016v-5.242c0-1.41-0.713-1.858-1.791-1.858c-0.979,0-1.908,0.597-2.372,1.244v5.855
					h-1.244v-8.012h1.244v1.161c0.564-0.663,1.658-1.36,2.853-1.36c1.675,0,2.555,0.846,2.555,2.588v5.623H213.099z"/>
				<path style="fill:#A5B7C6;" d="M215.952,472.002c0-2.322,1.659-4.197,3.948-4.197c2.422,0,3.848,1.891,3.848,4.296v0.316h-6.486
					c0.099,1.509,1.161,2.77,2.886,2.77c0.912,0,1.841-0.365,2.472-1.012l0.597,0.813c-0.796,0.796-1.874,1.227-3.185,1.227
					C217.66,476.215,215.952,474.507,215.952,472.002z M219.883,468.834c-1.708,0-2.555,1.443-2.621,2.67h5.258
					C222.503,470.31,221.707,468.834,219.883,468.834z"/>
				<path style="fill:#A5B7C6;" d="M231.146,476.016v-1.194c-0.597,0.813-1.576,1.393-2.704,1.393c-2.09,0-3.566-1.592-3.566-4.196
					c0-2.555,1.46-4.213,3.566-4.213c1.078,0,2.057,0.531,2.704,1.41v-4.263h1.244v11.064H231.146z M231.146,473.843v-3.633
					c-0.448-0.697-1.41-1.294-2.405-1.294c-1.609,0-2.571,1.327-2.571,3.102c0,1.775,0.962,3.085,2.571,3.085
					C229.736,475.104,230.697,474.54,231.146,473.843z"/>
				<path style="fill:#A5B7C6;" d="M238.327,476.016v-11.064h1.244v4.263c0.647-0.879,1.609-1.41,2.704-1.41
					c2.09,0,3.566,1.659,3.566,4.213c0,2.604-1.476,4.196-3.566,4.196c-1.128,0-2.107-0.581-2.704-1.393v1.194H238.327z
					 M241.96,475.104c1.626,0,2.588-1.31,2.588-3.085c0-1.775-0.962-3.102-2.588-3.102c-0.979,0-1.957,0.597-2.388,1.294v3.633
					C240.003,474.54,240.981,475.104,241.96,475.104z"/>
				<path style="fill:#A5B7C6;" d="M247.201,478.023c0.182,0.083,0.481,0.133,0.68,0.133c0.547,0,0.912-0.182,1.194-0.846
					l0.531-1.211l-3.351-8.095h1.344l2.671,6.569l2.654-6.569h1.36l-4.014,9.637c-0.481,1.161-1.294,1.609-2.356,1.625
					c-0.265,0-0.68-0.05-0.912-0.116L247.201,478.023z"/>
			</g>
		</g>
	</g>
</g>
</svg>
